# xmcd
#
# Track frame offsets:
#	150
#	20335
#	42692
#	63620
#	90435
#	110620
#	132992
#	153917
#
# Disc length: 2404 seconds
#
# Revision: 1
# Processed by: cddbd v1.5PL3 Copyright (c) Steve Scherf et al.
# Submitted via: CDex 1.50Beta5
#
DISCID=67096208
DTITLE=Every Little Thing - UNTITLED 4 ballads
DYEAR=2002
DGENRE=Rock
TTITLE0=UNSPEAKABLE
TTITLE1=愛の謳
TTITLE2=ルーム
TTITLE3=nostalgia
TTITLE4=UNSPEAKABLE(Instrumental)
TTITLE5=愛の謳(Instrumental)
TTITLE6=ルーム(Instrumental)
TTITLE7=nostalgia(Instrumental)
EXTD=
EXTT0=
EXTT1=
EXTT2=
EXTT3=
EXTT4=
EXTT5=
EXTT6=
EXTT7=
PLAYORDER=
